# AST/ASF file generated using VICON BodyLanguage
# -----------------------------------------------
:version 1.10
:name VICON
:units
  mass 1.0
  length 0.45
  angle deg
:documentation
   .ast/.asf automatically generated from VICON data using
   VICON BodyBuilder and BodyLanguage model FoxedUp or BRILLIANT.MOD
:root
   order TX TY TZ RX RY RZ
   axis XYZ
   position 0 0 0  
   orientation 0 0 0 
:bonedata
  begin
     id 1 
     name lhipjoint
     direction 0.722297 -0.617336 0.311742 
     length 2.6635 
     axis 0 0 0  XYZ
  end
  begin
     id 2 
     name lfemur
     direction 0.34202 -0.939693 0  
     length 7.39349  
     axis 0 0 20  XYZ
    dof rx ry rz
    limits (-160.0 20.0)
           (-70.0 70.0)
           (-60.0 70.0)
  end
  begin
     id 3 
     name ltibia
     direction 0.34202 -0.939693 0   
     length 7.36294   
     axis 0 0 20   XYZ
    dof rx
    limits (-10.0 170.0)
  end
  begin
     id 4 
     name lfoot
     direction 0.104879 -0.288152 0.951824   
     length 2.16981   
     axis -90 7.62852e-016 20   XYZ
    dof rx rz
    limits (-45.0 90.0)
           (-70.0 20.0)
  end
  begin
     id 5 
     name ltoes
     direction 1.53586e-011 -4.21895e-011 1   
     length 1.08218   
     axis -90 7.62852e-016 20   XYZ
    dof rx
    limits (-90.0 20.0)
  end
  begin
     id 6 
     name rhipjoint
     direction -0.75102 -0.589393 0.297631   
     length 2.78977  
     axis 0 0 0  XYZ 
  end
  begin
     id 7 
     name rfemur
     direction -0.34202 -0.939693 0   
     length 7.46076   
     axis 0 0 -20   XYZ
    dof rx ry rz
    limits (-160.0 20.0)
           (-70.0 70.0)
           (-70.0 60.0)
  end
  begin
     id 8 
     name rtibia
     direction -0.34202 -0.939693 0   
     length 7.31726   
     axis 0 0 -20   XYZ
    dof rx
    limits (-10.0 170.0)
 end
 begin
     id 9 
     name rfoot
     direction -0.107991 -0.296704 0.948844   
     length 2.09388  
     axis -90 -7.62852e-016 -20   XYZ
    dof rx rz
    limits (-45.0 90.0)
           (-20.0 70.0)
  end
  begin
     id 10 
     name rtoes
     direction -1.53559e-011 -4.21911e-011 1   
     length 1.04433   
     axis -90 -7.62852e-016 -20   XYZ
    dof rx
    limits (-90.0 20.0)
  end
  begin
     id 11 
     name lowerback
     direction 0.0165164 0.98272 0.184358   
     length 1.71896   
     axis 0 0 0   XYZ
    dof rx ry rz
    limits (-20.0 45.0)
           (-30.0 30.0)
           (-30.0 30.0)
  end
  begin
     id 12 
     name upperback
     direction -0.00887249 0.992297 0.123566   
     length 1.71504   
     axis 0 0 0   XYZ
    dof rx ry rz
    limits (-20.0 45.0)
           (-30.0 30.0)
           (-30.0 30.0)
  end
  begin
     id 13 
     name thorax
     direction -0.0157026 0.998908 0.0440032   
     length 1.77022   
     axis 0 0 0   XYZ
    dof rx ry rz
    limits (-20.0 45.0)
           (-30.0 30.0)
           (-30.0 30.0)
  end
  begin
     id 14 
     name lowerneck
     direction -0.0238856 0.998137 0.0561411   
     length 1.89341   
     axis 0 0 0   XYZ
    dof rx ry rz
    limits (-20.0 45.0)
           (-30.0 30.0)
           (-30.0 30.0)
  end
  begin
     id 15 
     name upperneck
     direction 0.0276574 0.952253 -0.304056   
     length 1.86999   
     axis 0 0 0   XYZ
    dof rx ry rz
    limits (-20.0 45.0)
           (-30.0 30.0)
           (-30.0 30.0)
  end
  begin
     id 16
     name head
     direction 0.00800083 0.994258 -0.106712  
     length 1.91492  
     axis 0 0 0   XYZ
    dof rx ry rz
    limits (-20.0 45.0)
           (-30.0 30.0)
           (-30.0 30.0)
  end
  begin
     id 17 
     name lclavicle
     direction 0.97203 0.225407 0.06595  
     length 3.34889  
     axis 0 0 0   XYZ
    dof ry rz
    limits (-20.0 10.0)
           (0.0 20.0)
  end
  begin
     id 18 
     name lhumerus
     direction 1 -4.48973e-011 2.20267e-027   
     length 4.85645   
     axis 180 -30 -90   XYZ
    dof rx ry rz
    limits (-60.0 90.0)
           (-90.0 90.0)
           (-90.0 90.0)
  end
  begin
     id 19
     name lradius
     direction 1 -4.4897e-011 4.60472e-027   
     length 2.79874   
     axis 180 -30 -90   XYZ
    dof rx
    limits (-10.0 170.0)
  end
  begin
     id 20
     name lwrist
     direction 1 -4.48952e-011 1.14928e-026   
     length 1.39937   
     axis -6.29373e-015 90 90   XYZ
    dof ry
    limits (-180.0 0.0)
 end
  begin
     id 21 
     name lhand
     direction 1 -4.48967e-011 2.29886e-026   
     length 0.573398   
     axis -1.46689e-014 90 90   XYZ
    dof rx rz
    limits (-90.0 90.0)
           (-45.0 45.0)
  end
  begin
     id 22 
     name lfingers
     direction 1 -4.48955e-011 4.59726e-026   
     length 0.462289   
     axis -2.93383e-014 90 90   XYZ
    dof rx
    limits (0.0 90.0)
  end
  begin
     id 23
     name lthumb
     direction 0.707107 -6.34866e-011 0.707107   
     length 0.663757   
     axis -90 45 5.69224e-014   XYZ
    dof rx rz
    limits (-45.0 45.0)
           (-45.0 45.0)
  end
  begin
     id 24 
     name rclavicle
     direction -0.981571 0.157346 0.108443   
     length 3.35257  
     axis 0 0 0   XYZ 
    dof ry rz
    limits (-10.0 20.0)
           (-20.0 0.0)
  end
  begin
     id 25 
     name rhumerus
     direction -1 -4.48967e-011 8.58308e-029  
     length 4.67018   
     axis 180 30 90   XYZ
    dof rx ry rz
    limits (-90.0 60.0)
           (-90.0 90.0)
           (-90.0 90.0)
  end
  begin
     id 26 
     name rradius
     direction -1 -4.48958e-011 4.52548e-027   
     length 2.65534   
     axis 180 30 90   XYZ
    dof rx
    limits (-10.0 170.0)
  end
  begin
     id 27 
     name rwrist
     direction -1 -4.48977e-011 1.14952e-026   
     length 1.32767   
     axis -6.29373e-015 -90 -90   XYZ
    dof ry
    limits (-180.0 0.0)
  end
  begin
     id 28
     name rhand
     direction -1 -4.48924e-011 2.29804e-026   
     length 0.594069   
     axis -1.46689e-014 -90 -90   XYZ
    dof rx rz
    limits (-90.0 90.0)
           (-45.0 45.0)
  end
  begin
     id 29
     name rfingers
     direction -1 -4.48998e-011 4.59888e-026   
     length 0.478954   
     axis -2.93383e-014 -90 -90   XYZ
    dof rx
    limits (0.0 90.0)
  end
  begin
     id 30
     name rthumb
     direction -0.707107 -6.34933e-011 0.707107   
     length 0.687685   
     axis -90 -45 -5.69224e-014   XYZ
    dof rx rz
    limits (-45.0 45.0)
           (-45.0 45.0)
  end
:hierarchy
  begin
    root lhipjoint rhipjoint lowerback
    lhipjoint lfemur
    lfemur ltibia
    ltibia lfoot
    lfoot ltoes
    rhipjoint rfemur
    rfemur rtibia
    rtibia rfoot
    rfoot rtoes
    lowerback upperback
    upperback thorax
    thorax lowerneck lclavicle rclavicle
    lowerneck upperneck
    upperneck head
    lclavicle lhumerus
    lhumerus lradius
    lradius lwrist
    lwrist lhand lthumb
    lhand lfingers
    rclavicle rhumerus
    rhumerus rradius
    rradius rwrist
    rwrist rhand rthumb
    rhand rfingers
  end

#!OML:ASF E:\pregnant2\Project 1\Capture day 1\Session 1\pregnant2.ASF
:FULLY-SPECIFIED
:DEGREES
1
root 5.87915 16.7003 33.5763 -152.479 -6.97918 177.817
lowerback -10.2211 7.56356 2.20485
upperback -15.0434 7.17908 -6.17958
thorax -9.38374 1.83356 -7.52419
lowerneck 1.09173 20.2706 27.86
upperneck 26.4765 28.5614 -12.1924
head 15.0517 14.0297 -4.15577
rclavicle 4.88016e-014 1.59028e-015
rhumerus -39.4072 17.0402 -94.463
rradius 74.1888
rwrist 9.24243
rhand -18.5523 -9.97871
rfingers 7.12502
rthumb 7.73727 -39.8172
lclavicle 4.88016e-014 1.59028e-015
lhumerus -51.7205 -17.2781 72.0138
lradius 51.8851
lwrist 3.00141
lhand -12.3374 29.8659
lfingers 7.12502
lthumb 13.7318 59.3928
rfemur -29.8531 9.13927 21.1844
rtibia 31.1399
rfoot -26.7782 -23.0212
rtoes 0.659678
lfemur -54.7666 -12.2673 -14.6177
ltibia 21.2289
lfoot 0.579257 18.0403
ltoes -15.8791
2
root 5.84381 16.6768 33.4417 -152.638 -7.06445 177.796
lowerback -10.2968 7.57093 2.13789
upperback -14.991 7.20261 -6.1927
thorax -9.28262 1.86301 -7.4881
lowerneck 1.20767 20.3425 27.9515
upperneck 26.4026 28.6938 -12.2085
head 15.0469 14.1008 -4.14216
rclavicle 3.598e-014 6.83819e-014
rhumerus -39.7083 16.977 -94.4537
rradius 73.5906
rwrist 9.66507
rhand -18.8015 -10.1104
rfingers 7.12502
rthumb 7.49678 -39.9575
lclavicle 3.598e-014 6.83819e-014
lhumerus -51.5345 -17.179 72.2492
lradius 51.96
lwrist 3.23434
lhand -12.5632 29.9954
lfingers 7.12502
lthumb 13.5142 59.5369
rfemur -29.1974 8.93778 21.2751
rtibia 31.3224
rfoot -27.1524 -22.9725
rtoes 0.284308
lfemur -54.6157 -12.3253 -15.0074
ltibia 22.1672
lfoot 1.21813 17.061
ltoes -16.1158
3
root 5.8088 16.654 33.3152 -152.666 -7.22132 177.712
lowerback -10.3664 7.56886 2.03169
upperback -15.0033 7.19115 -6.24729
thorax -9.26666 1.86173 -7.48362
lowerneck 1.28931 20.3815 28.0033
upperneck 26.3446 28.7537 -12.1639
head 15.0184 14.1415 -4.11988
rclavicle 6.65929e-014 4.53229e-014
rhumerus -40.0308 16.82 -94.4381
rradius 72.9195
rwrist 10.0849
rhand -18.4727 -10.3025
rfingers 7.12502
rthumb 7.81411 -40.1381
lclavicle 6.65929e-014 4.53229e-014
lhumerus -51.3006 -17.146 72.5366
lradius 51.9366
lwrist 3.45779
lhand -12.7716 30.1078
lfingers 7.12502
lthumb 13.3134 59.6625
rfemur -28.7694 8.60917 21.3197
rtibia 31.6493
rfoot -27.4069 -22.9494
rtoes -0.652845
lfemur -54.6642 -12.3734 -15.446
ltibia 23.3496
lfoot 1.74635 15.8863
ltoes -14.4664
4
root 5.77348 16.6374 33.1885 -152.758 -7.36818 177.58
lowerback -10.351 7.58471 1.89298
upperback -15.0086 7.21098 -6.33275
thorax -9.28634 1.87899 -7.50237
lowerneck 1.35799 20.4016 28.0252
upperneck 26.2934 28.773 -12.081
head 14.972 14.1654 -4.09133
rclavicle -2.5345e-014 7.15625e-015
rhumerus -40.4448 16.6412 -94.4846
rradius 72.1611
rwrist 10.1505
rhand -19.236 -10.0876
rfingers 7.12502
rthumb 7.07737 -39.9493
lclavicle -2.5345e-014 7.15625e-015
lhumerus -51.0331 -17.2189 72.9343
lradius 51.8688
lwrist 3.66634
lhand -12.9161 30.1948
lfingers 7.12502
lthumb 13.174 59.7586
rfemur -28.2795 8.31085 21.2945
rtibia 31.997
rfoot -27.4802 -22.9007
rtoes -1.63033
lfemur -54.5859 -12.4136 -15.933
ltibia 24.387
lfoot 2.09864 15.267
ltoes -12.0923
5
root 5.73512 16.6293 33.0613 -152.875 -7.4855 177.334
lowerback -10.2749 7.57219 1.67082
upperback -15.0125 7.19279 -6.439
thorax -9.35271 1.88161 -7.50705
lowerneck 1.52898 20.4015 28.1005
upperneck 26.1525 28.8107 -12.1179
head 14.9047 14.1983 -4.1197
rclavicle -3.07122e-014 5.80451e-014
rhumerus -40.9063 16.3206 -94.4828
rradius 71.447
rwrist 10.7824
rhand -19.368 -10.1512
rfingers 7.12502
rthumb 6.94991 -40.0171
lclavicle -3.07122e-014 5.80451e-014
lhumerus -50.7385 -17.2274 73.3496
lradius 51.7006
lwrist 3.77122
lhand -12.8484 30.4218
lfingers 7.12502
lthumb 13.2393 59.9813
rfemur -27.8415 7.91363 21.1367
rtibia 32.5429
rfoot -27.4917 -22.7337
rtoes -2.68187
lfemur -54.5303 -12.509 -16.4763
ltibia 25.3841
lfoot 1.85639 14.9799
ltoes -11.838
6
root 5.7022 16.622 32.932 -152.954 -7.58098 176.99
lowerback -10.207 7.56771 1.26716
upperback -15.0509 7.17126 -6.59103
thorax -9.47418 1.88803 -7.46453
lowerneck 1.72753 20.3471 28.2212
upperneck 26.0585 28.7671 -12.1472
head 14.8421 14.2005 -4.17608
rclavicle -4.52235e-014 -1.98785e-014
rhumerus -41.3564 15.6547 -94.3283
rradius 70.7571
rwrist 10.9313
rhand -19.0477 -9.81258
rfingers 7.12502
rthumb 7.25908 -39.6681
lclavicle -4.52235e-014 -1.98785e-014
lhumerus -50.3828 -17.3335 73.833
lradius 51.3745
lwrist 3.77476
lhand -13.094 30.2096
lfingers 7.12502
lthumb 13.0026 59.7844
rfemur -27.5196 7.55279 20.8773
rtibia 33.2753
rfoot -27.656 -22.6475
rtoes -3.6595
lfemur -54.48 -12.5761 -17.087
ltibia 26.2546
lfoot 1.41092 14.5637
ltoes -13.3171
7
root 5.67476 16.6027 32.8165 -152.839 -7.74962 176.578
lowerback -10.1755 7.45312 0.715192
upperback -15.0912 7.00255 -6.66226
thorax -9.62727 1.83714 -7.25601
lowerneck 1.78542 20.4 28.1604
upperneck 26.036 28.8499 -12.103
head 14.8191 14.2378 -4.13658
rclavicle -5.725e-014 3.10104e-014
rhumerus -41.9334 15.3461 -94.4401
rradius 69.8278
rwrist 12.4926
rhand -19.6956 -10.02
rfingers 7.12502
rthumb 6.63364 -39.8961
lclavicle -5.725e-014 3.10104e-014
lhumerus -50.0955 -17.3425 74.4155
lradius 51.2161
lwrist 3.88711
lhand -13.267 30.4629
lfingers 7.12502
lthumb 12.8359 60.0482
rfemur -27.6048 6.94473 20.617
rtibia 34.2767
rfoot -27.7821 -22.4793
rtoes -4.55599
lfemur -54.6214 -12.5251 -17.8057
ltibia 27.0046
lfoot 1.71491 13.4079
ltoes -13.862
8
root 5.64927 16.5831 32.6941 -152.735 -7.96847 176.137
lowerback -10.1889 7.3661 0.131323
upperback -15.1422 6.8604 -6.78882
thorax -9.76158 1.79722 -7.08504
lowerneck 1.68895 20.4151 28.0817
upperneck 26.2107 28.7998 -11.8835
head 14.8449 14.2184 -4.04996
rclavicle -4.50247e-014 4.45278e-014
rhumerus -42.4498 14.6235 -94.3694
rradius 68.8744
rwrist 13.3299
rhand -19.8615 -9.76729
rfingers 7.12502
rthumb 6.47353 -39.6484
lclavicle -4.50247e-014 4.45278e-014
lhumerus -49.7147 -17.5113 75.0616
lradius 50.8358
lwrist 3.8893
lhand -13.3474 30.6267
lfingers 7.12502
lthumb 12.7583 60.2169
rfemur -27.7225 6.33177 20.3788
rtibia 35.4687
rfoot -27.8841 -22.4095
rtoes -5.36944
lfemur -54.6034 -12.3654 -18.6984
ltibia 27.7264
lfoot 1.50268 12.2549
ltoes -13.3748
9
root 5.62725 16.5649 32.5797 -152.492 -8.17961 175.743
lowerback -10.2852 7.30042 -0.478235
upperback -15.2459 6.72858 -6.90271
thorax -9.91519 1.75644 -6.88112
lowerneck 1.74881 20.3502 28.0843
upperneck 26.247 28.6961 -11.8194
head 14.813 14.1823 -4.06336
rclavicle -5.86415e-014 1.47896e-013
rhumerus -43.069 13.8 -94.2452
rradius 67.9225
rwrist 14.3048
rhand -20.3592 -9.72853
rfingers 7.12502
rthumb 5.99301 -39.6238
lclavicle -5.86415e-014 1.47896e-013
lhumerus -49.2062 -17.5941 75.7669
lradius 50.2427
lwrist 3.59947
lhand -13.3906 30.844
lfingers 7.12502
lthumb 12.7167 60.4368
rfemur -28.2376 5.86062 20.1498
rtibia 37.0713
rfoot -28.115 -22.3664
rtoes -5.9955
lfemur -54.6277 -11.9337 -19.7399
ltibia 28.3299
lfoot 0.778023 11.3899
ltoes -13.4977
10
root 5.59834 16.5514 32.4579 -152.367 -8.23748 175.491
lowerback -10.399 7.25959 -0.93383
upperback -15.2795 6.66143 -6.92186
thorax -9.95749 1.75563 -6.64715
lowerneck 1.72905 20.3658 27.9038
upperneck 26.3247 28.6949 -11.7043
head 14.7938 14.1726 -4.00395
rclavicle -2.88238e-015 -1.90833e-014
rhumerus -43.7392 13.1178 -94.0865
rradius 67.0287
rwrist 15.0438
rhand -20.1046 -9.54131
rfingers 7.12502
rthumb 6.2388 -39.4294
lclavicle -2.88238e-015 -1.90833e-014
lhumerus -48.8287 -17.6837 76.5654
lradius 49.8316
lwrist 3.52628
lhand -13.4882 31.0328
lfingers 7.12502
lthumb 12.6226 60.6314
rfemur -28.6245 5.23656 20.0557
rtibia 38.6462
rfoot -28.0475 -22.0736
rtoes -6.64221
lfemur -54.4821 -11.3011 -20.7721
ltibia 28.9473
lfoot 0.067717 10.6244
ltoes -13.4642
11
root 5.60027 16.5266 32.3989 -151.181 -9.10717 174.907
lowerback -10.6311 6.98723 -1.70814
upperback -15.6974 6.13449 -7.0755
thorax -10.4729 1.4697 -6.42429
lowerneck 1.80289 20.2711 27.8785
upperneck 26.2988 28.5714 -11.7173
head 14.737 14.1216 -4.05235
rclavicle -5.61567e-014 5.88403e-014
rhumerus -44.3428 12.1885 -93.8338
rradius 65.9829
rwrist 15.6529
rhand -20.3701 -9.38198
rfingers 7.12502
rthumb 5.98249 -39.2775
lclavicle -5.61567e-014 5.88403e-014
lhumerus -48.3261 -17.8568 77.3682
lradius 49.2151
lwrist 3.24314
lhand -13.5513 30.7932
lfingers 7.12502
lthumb 12.5617 60.3955
rfemur -30.3493 4.39238 19.926
rtibia 40.3361
rfoot -27.7256 -22.2389
rtoes -6.94405
lfemur -55.7165 -10.8237 -21.9398
ltibia 29.5302
lfoot -0.49696 8.81226
ltoes -13.3727
12
root 5.55688 16.5301 32.268 -151.406 -9.06383 174.863
lowerback -10.5811 7.01876 -1.82834
upperback -15.6428 6.20647 -7.03536
thorax -10.4479 1.53334 -6.3134
lowerneck 1.89964 20.2494 27.7988
upperneck 26.3262 28.5775 -11.7639
head 14.7272 14.1157 -4.07396
rclavicle 5.05907e-014 -8.74653e-015
rhumerus -44.8666 11.43 -93.4939
rradius 65.0621
rwrist 15.1745
rhand -19.6197 -9.05329
rfingers 7.12502
rthumb 6.70699 -38.9271
lclavicle 5.05907e-014 -8.74653e-015
lhumerus -47.978 -17.9328 78.327
lradius 48.7916
lwrist 2.81111
lhand -13.8188 31.0592
lfingers 7.12502
lthumb 12.3038 60.6772
rfemur -30.2893 3.78501 19.9589
rtibia 41.5797
rfoot -26.9142 -21.8195
rtoes -8.09041
lfemur -55.1765 -10.2223 -22.7694
ltibia 30.1899
lfoot -1.48777 8.17451
ltoes -13.1936
13
root 5.50985 16.5376 32.1403 -151.565 -9.06264 174.852
lowerback -10.5848 7.0477 -1.85439
upperback -15.6031 6.26925 -6.98491
thorax -10.3997 1.58114 -6.2384
lowerneck 1.99873 20.1988 27.7063
upperneck 26.391 28.5385 -11.8038
head 14.72 14.0886 -4.10555
rclavicle -1.12313e-013 4.13472e-014
rhumerus -45.5433 10.8194 -93.3136
rradius 63.8035
rwrist 16.3858
rhand -20.7724 -9.31729
rfingers 7.12502
rthumb 5.59408 -39.2235
lclavicle -1.12313e-013 4.13472e-014
lhumerus -47.6581 -18.0565 79.3343
lradius 48.4214
lwrist 2.46445
lhand -14.0851 31.2114
lfingers 7.12502
lthumb 12.047 60.8447
rfemur -30.3677 2.93735 20.0296
rtibia 42.8613
rfoot -25.7895 -21.1626
rtoes -9.16732
lfemur -54.6562 -9.79256 -23.3967
ltibia 30.6941
lfoot -2.38275 7.82883
ltoes -13.2178
14
root 5.42483 16.5697 31.9452 -153.018 -8.18882 175.364
lowerback -10.3758 7.3603 -1.29558
upperback -15.1132 6.88929 -6.74846
thorax -9.81658 1.95508 -6.24215
lowerneck 1.95371 20.2946 27.5023
upperneck 26.5809 28.6817 -11.7663
head 14.8028 14.1234 -4.0289
rclavicle -6.80837e-014 -1.51076e-014
rhumerus -46.1042 10.3067 -93.0682
rradius 62.6537
rwrist 16.9449
rhand -21.0378 -9.61553
rfingers 7.12502
rthumb 5.33782 -39.5283
lclavicle -6.80837e-014 -1.51076e-014
lhumerus -47.4313 -18.0441 80.3655
lradius 48.228
lwrist 2.13302
lhand -14.23 31.1317
lfingers 7.12502
lthumb 11.9074 60.7731
rfemur -28.8549 2.44984 20.1441
rtibia 43.805
rfoot -24.3853 -19.851
rtoes -10.264
lfemur -52.4878 -9.16604 -23.6322
ltibia 31.1528
lfoot -3.4442 8.69694
ltoes -13.1611
15
root 5.37724 16.5879 31.8267 -153.075 -8.25642 175.357
lowerback -10.3543 7.37893 -1.23662
upperback -15.1471 6.90742 -6.72695
thorax -9.86129 1.95607 -6.25536
lowerneck 1.96025 20.2867 27.4235
upperneck 26.869 28.6424 -11.6313
head 14.8828 14.0988 -3.98332
rclavicle 1.29111e-013 -3.57812e-014
rhumerus -46.7537 9.32564 -92.677
rradius 61.6282
rwrist 16.972
rhand -20.8125 -9.24395
rfingers 7.12502
rthumb 5.55541 -39.1511
lclavicle 1.29111e-013 -3.57812e-014
lhumerus -47.2777 -18.2847 81.4595
lradius 48.0357
lwrist 1.80395
lhand -14.4004 31.1269
lfingers 7.12502
lthumb 11.743 60.7777
rfemur -29.1545 1.5211 20.1511
rtibia 45.0618
rfoot -22.7654 -18.9496
rtoes -10.655
lfemur -51.9706 -8.8959 -24.0659
ltibia 31.3249
lfoot -4.08474 8.42482
ltoes -13.2648
